<svg width="24" height="23" viewBox="0 0 24 23" fill="none" xmlns="http://www.w3.org/2000/svg">
<path d="M23.2753 8.96112L14.3242 1.00585C13.6836 0.436613 12.8564 0.122192 11.9994 0.122192C11.1424 0.122192 10.3152 0.436613 9.67456 1.00585L0.724593 8.96112C0.54823 9.11855 0.4238 9.32579 0.367759 9.55546C0.311717 9.78512 0.326703 10.0264 0.410733 10.2473C0.494764 10.4683 0.643883 10.6586 0.838371 10.793C1.03286 10.9273 1.26356 10.9995 1.49996 11H3.83329V19.1667C3.83431 20.0946 4.20339 20.9842 4.85954 21.6404C5.5157 22.2966 6.40535 22.6656 7.33329 22.6667H8.49996V15.6667C8.49996 11.042 15.5 11.0399 15.5 15.6667V22.6667H16.6666C17.5946 22.6656 18.4842 22.2966 19.1404 21.6404C19.7965 20.9842 20.1656 20.0946 20.1666 19.1667V11H22.5C22.7364 10.9995 22.9671 10.9273 23.1615 10.793C23.356 10.6586 23.5052 10.4683 23.5892 10.2473C23.6732 10.0264 23.6882 9.78512 23.6322 9.55546C23.5761 9.32579 23.4517 9.11855 23.2753 8.96112Z" fill="#40189D"/>
</svg>
